# xmcd
#
# Track frame offsets:
#	150
#	15376
#	35766
#	56200
#	74471
#	95238
#	111071
#	127026
#	142804
#	162031
#
# Disc length: 2385 seconds
#
# Revision: 0
# Processed by: cddbd v1.5.2PL0 Copyright (c) Steve Scherf et al.
# Submitted via: audiograbber 1.83.01
#
DISCID=8b094f0a
DTITLE=Various Artist - ASK1303B
DYEAR=2013
DGENRE=KARAOKE
TTITLE0=JASON ALDEAN - 1994
TTITLE1=CHRISTINA PERRI - ARMS
TTITLE2=LUPE FIASCO - GUY SEBASTIAN - BATTLE SCARS
TTITLE3=BRAD PAISLEY - BEAT THIS SUMMER
TTITLE4=JAZMINE SULLIVAN - BUST YOUR WINDOWS
TTITLE5=HAYDEN PANETTIERE - CONSIDER ME
TTITLE6=PISTAL ANNIES - HUSH HUSH
TTITLE7=FLORIDA GEORGIA LINE - ROUND HERE
TTITLE8=ASHLEY MONROE/BLAKE SHELTON - YOU AIN'T DOLLY
TTITLE9=COCO JONES/ TYLER JAMES WILLIAMS - GUARDIAN ANGEL
EXTD=
EXTT0=
EXTT1=
EXTT2=
EXTT3=
EXTT4=
EXTT5=
EXTT6=
EXTT7=
EXTT8=
EXTT9=
PLAYORDER=
